<mxfile host="app.diagrams.net" agent="Mozilla/5.0 (Windows NT 10.0; Win64; x64) AppleWebKit/537.36 (KHTML, like Gecko) Chrome/131.0.0.0 Safari/537.36" version="24.8.6">
  <diagram name="Trang-1" id="-oEubN4X6IxWnjhgQaEu">
    <mxGraphModel dx="1195" dy="615" grid="0" gridSize="10" guides="1" tooltips="1" connect="1" arrows="1" fold="1" page="1" pageScale="1" pageWidth="827" pageHeight="1169" math="0" shadow="0">
      <root>
        <mxCell id="0" />
        <mxCell id="1" parent="0" />
        <mxCell id="F29dsRK44Ll-wDHJrQMk-1" value="Merchant" style="rounded=0;whiteSpace=wrap;html=1;fontStyle=1" vertex="1" parent="1">
          <mxGeometry x="160" y="120" width="120" height="60" as="geometry" />
        </mxCell>
        <mxCell id="F29dsRK44Ll-wDHJrQMk-2" value="OnePay" style="rounded=0;whiteSpace=wrap;html=1;fontStyle=1" vertex="1" parent="1">
          <mxGeometry x="420" y="120" width="120" height="60" as="geometry" />
        </mxCell>
        <mxCell id="F29dsRK44Ll-wDHJrQMk-3" value="" style="endArrow=none;dashed=1;html=1;rounded=0;entryX=0.5;entryY=1;entryDx=0;entryDy=0;" edge="1" parent="1" target="F29dsRK44Ll-wDHJrQMk-1">
          <mxGeometry width="50" height="50" relative="1" as="geometry">
            <mxPoint x="220" y="600" as="sourcePoint" />
            <mxPoint x="170" y="220" as="targetPoint" />
          </mxGeometry>
        </mxCell>
        <mxCell id="F29dsRK44Ll-wDHJrQMk-4" value="" style="endArrow=none;dashed=1;html=1;rounded=0;entryX=0.5;entryY=1;entryDx=0;entryDy=0;" edge="1" parent="1" source="F29dsRK44Ll-wDHJrQMk-6" target="F29dsRK44Ll-wDHJrQMk-2">
          <mxGeometry width="50" height="50" relative="1" as="geometry">
            <mxPoint x="480" y="560" as="sourcePoint" />
            <mxPoint x="400" y="360" as="targetPoint" />
          </mxGeometry>
        </mxCell>
        <mxCell id="F29dsRK44Ll-wDHJrQMk-5" value="" style="endArrow=classic;html=1;rounded=0;entryX=0;entryY=0;entryDx=0;entryDy=0;fillColor=#dae8fc;strokeColor=#6c8ebf;" edge="1" parent="1" target="F29dsRK44Ll-wDHJrQMk-6">
          <mxGeometry width="50" height="50" relative="1" as="geometry">
            <mxPoint x="220" y="240" as="sourcePoint" />
            <mxPoint x="400" y="250" as="targetPoint" />
          </mxGeometry>
        </mxCell>
        <mxCell id="F29dsRK44Ll-wDHJrQMk-8" value="1.1 Payment Request (HTTPS Redirect)" style="edgeLabel;html=1;align=center;verticalAlign=middle;resizable=0;points=[];" vertex="1" connectable="0" parent="F29dsRK44Ll-wDHJrQMk-5">
          <mxGeometry x="-0.1905" y="1" relative="1" as="geometry">
            <mxPoint x="27" y="-9" as="offset" />
          </mxGeometry>
        </mxCell>
        <mxCell id="F29dsRK44Ll-wDHJrQMk-7" value="" style="endArrow=none;dashed=1;html=1;rounded=0;entryX=0.5;entryY=1;entryDx=0;entryDy=0;" edge="1" parent="1" target="F29dsRK44Ll-wDHJrQMk-6">
          <mxGeometry width="50" height="50" relative="1" as="geometry">
            <mxPoint x="480" y="600" as="sourcePoint" />
            <mxPoint x="480" y="180" as="targetPoint" />
          </mxGeometry>
        </mxCell>
        <mxCell id="F29dsRK44Ll-wDHJrQMk-6" value="" style="rounded=0;whiteSpace=wrap;html=1;" vertex="1" parent="1">
          <mxGeometry x="475" y="240" width="10" height="80" as="geometry" />
        </mxCell>
        <mxCell id="F29dsRK44Ll-wDHJrQMk-9" value="" style="rounded=0;whiteSpace=wrap;html=1;" vertex="1" parent="1">
          <mxGeometry x="475" y="400" width="10" height="80" as="geometry" />
        </mxCell>
        <mxCell id="F29dsRK44Ll-wDHJrQMk-11" value="" style="endArrow=classic;html=1;rounded=1;exitX=1;exitY=1;exitDx=0;exitDy=0;entryX=1;entryY=0;entryDx=0;entryDy=0;curved=0;fillColor=#dae8fc;strokeColor=#6c8ebf;" edge="1" parent="1" source="F29dsRK44Ll-wDHJrQMk-6" target="F29dsRK44Ll-wDHJrQMk-9">
          <mxGeometry width="50" height="50" relative="1" as="geometry">
            <mxPoint x="570" y="390" as="sourcePoint" />
            <mxPoint x="620" y="340" as="targetPoint" />
            <Array as="points">
              <mxPoint x="500" y="330" />
              <mxPoint x="510" y="340" />
              <mxPoint x="520" y="360" />
              <mxPoint x="510" y="380" />
            </Array>
          </mxGeometry>
        </mxCell>
        <mxCell id="F29dsRK44Ll-wDHJrQMk-14" value="&lt;span style=&quot;font-size: 10px; text-wrap-mode: wrap; background-color: rgb(251, 251, 251);&quot;&gt;Process with Partner/Bank/Card Association&lt;/span&gt;" style="edgeLabel;html=1;align=center;verticalAlign=middle;resizable=0;points=[];" vertex="1" connectable="0" parent="F29dsRK44Ll-wDHJrQMk-11">
          <mxGeometry x="-0.1149" relative="1" as="geometry">
            <mxPoint x="53" as="offset" />
          </mxGeometry>
        </mxCell>
        <mxCell id="F29dsRK44Ll-wDHJrQMk-15" value="" style="endArrow=classic;html=1;rounded=0;exitX=0;exitY=0.104;exitDx=0;exitDy=0;exitPerimeter=0;fillColor=#dae8fc;strokeColor=#6c8ebf;" edge="1" parent="1" source="F29dsRK44Ll-wDHJrQMk-9">
          <mxGeometry width="50" height="50" relative="1" as="geometry">
            <mxPoint x="330" y="490" as="sourcePoint" />
            <mxPoint x="220" y="408" as="targetPoint" />
          </mxGeometry>
        </mxCell>
        <mxCell id="F29dsRK44Ll-wDHJrQMk-16" value="1.2 Payment Response (HTTPS Redirect)" style="edgeLabel;html=1;align=center;verticalAlign=middle;resizable=0;points=[];" vertex="1" connectable="0" parent="F29dsRK44Ll-wDHJrQMk-15">
          <mxGeometry x="-0.1417" y="1" relative="1" as="geometry">
            <mxPoint x="-16" y="-9" as="offset" />
          </mxGeometry>
        </mxCell>
        <mxCell id="F29dsRK44Ll-wDHJrQMk-17" value="" style="endArrow=classic;html=1;rounded=0;exitX=0;exitY=0.104;exitDx=0;exitDy=0;exitPerimeter=0;fillColor=#dae8fc;strokeColor=#6c8ebf;" edge="1" parent="1">
          <mxGeometry width="50" height="50" relative="1" as="geometry">
            <mxPoint x="475" y="439.58" as="sourcePoint" />
            <mxPoint x="220" y="439.58" as="targetPoint" />
          </mxGeometry>
        </mxCell>
        <mxCell id="F29dsRK44Ll-wDHJrQMk-18" value="1.3 IPN Update (API)" style="edgeLabel;html=1;align=center;verticalAlign=middle;resizable=0;points=[];" vertex="1" connectable="0" parent="F29dsRK44Ll-wDHJrQMk-17">
          <mxGeometry x="-0.1417" y="1" relative="1" as="geometry">
            <mxPoint x="-19" y="-9" as="offset" />
          </mxGeometry>
        </mxCell>
        <mxCell id="F29dsRK44Ll-wDHJrQMk-20" value="" style="rounded=0;whiteSpace=wrap;html=1;" vertex="1" parent="1">
          <mxGeometry x="475" y="520" width="10" height="40" as="geometry" />
        </mxCell>
        <mxCell id="F29dsRK44Ll-wDHJrQMk-23" value="" style="endArrow=classic;html=1;rounded=0;entryX=0;entryY=0;entryDx=0;entryDy=0;fillColor=#dae8fc;strokeColor=#6c8ebf;" edge="1" parent="1">
          <mxGeometry width="50" height="50" relative="1" as="geometry">
            <mxPoint x="220" y="520" as="sourcePoint" />
            <mxPoint x="475" y="520" as="targetPoint" />
          </mxGeometry>
        </mxCell>
        <mxCell id="F29dsRK44Ll-wDHJrQMk-25" value="" style="endArrow=classic;html=1;rounded=0;exitX=0;exitY=0.104;exitDx=0;exitDy=0;exitPerimeter=0;fillColor=#dae8fc;strokeColor=#6c8ebf;" edge="1" parent="1">
          <mxGeometry width="50" height="50" relative="1" as="geometry">
            <mxPoint x="475" y="550" as="sourcePoint" />
            <mxPoint x="220" y="550" as="targetPoint" />
          </mxGeometry>
        </mxCell>
        <mxCell id="F29dsRK44Ll-wDHJrQMk-26" value="2. QueryDR (API)" style="edgeLabel;html=1;align=center;verticalAlign=middle;resizable=0;points=[];" vertex="1" connectable="0" parent="F29dsRK44Ll-wDHJrQMk-25">
          <mxGeometry x="-0.1417" y="1" relative="1" as="geometry">
            <mxPoint x="-16" y="-11" as="offset" />
          </mxGeometry>
        </mxCell>
      </root>
    </mxGraphModel>
  </diagram>
</mxfile>
